<svg stroke-miterlimit="10" style="fill-rule:nonzero;clip-rule:evenodd;stroke-linecap:round;stroke-linejoin:round" viewBox="0 0 300 300" xml:space="preserve" xmlns="http://www.w3.org/2000/svg">
  <g fill="currentColor">
    <path d="m81.745 148.019 3.984-8.198" />
    <path d="M36.265 10.987c-2.688 0-7.414 1.365-10.606 3.045-3.192 1.512-7.225 5.524-9.241 8.716-7.225 12.434-3.172 46.375 8.926 75.61l4.673 10.922 8.244-.84c17.474-1.68 62.168-.326 74.77 2.363 2.74.57 5.067 1.052 6.983 1.417 9.953 1.898 8.923.988-1.785-3.097-15.458-6.049-31.893-9.084-48.359-9.084H55.378l4.043-4.358c2.184-2.353 6.584-5.702 9.609-7.719 3.024-1.848 5.177-3.865 4.673-4.2-.84-.84-10.733 1.144-18.798 3.833-2.352.672-1.837-.168 1.523-3.36 5.209-4.705 18.808-9.4 27.881-9.4 4.705 0 5.514-.525 3.833-2.205-1.344-1.176-6.857-1.995-14.754-1.995-10.586 0-12.129-.357-9.609-2.205 1.68-1.177 6.07-2.815 9.767-3.991l6.72-1.89-5.88-2.52c-3.193-1.513-10.565-2.678-16.278-2.678-5.764-.165-10.214-.31-10.396-.473.03-.116.022-.095.052-.21.753-1.492 10.624-5.356 14.02-5.356 2.352 0 4.2-.682 4.2-1.523 0-2.352-10.564-6.048-17.117-5.88-3.528.168-6.406.02-6.406-.315 0-.336 2.542-1.702 5.566-3.046l5.356-2.153-7.404-2.205c-6.72-2.184-7.53-2.027-9.714.998-3.23 4.225-1.587 34.582 1.313 48.359l-2.625-.315-.893-2.836c-8.065-25.707-9.567-49.083-3.518-55.132 7.225-7.225 36.975 8.947 60.33 32.975l9.032 9.03 8.244-2.31c11.257-3.36 15.825-1.88 22.21 7.194l5.356 7.718 2.678-8.558c2.52-8.57 4.883-9.735 4.883-2.678 0 4.872 5.041 19.322 6.721 19.322 1.68 0 6.721-14.45 6.721-19.322 0-7.057 2.363-5.892 4.883 2.678l2.678 8.558 5.355-7.718c6.385-9.073 10.943-10.554 22.368-7.194l8.559 2.52 8.769-9.24c22.011-23.356 52.727-40.368 60.12-32.975 6.049 6.049 4.379 30.108-3.518 54.975l-.892 2.835-2.993.368c.443-2.069.837-3.517 1.365-6.563 3.193-17.475 3.183-37.648.158-41.849-2.017-2.856-2.836-3.024-9.557-.84l-7.403 2.206 5.566 2.152c2.856 1.344 5.356 2.71 5.355 3.046 0 .336-2.835.483-6.196.315-6.72-.168-17.327 3.528-17.327 5.88 0 .84 1.848 1.523 4.201 1.523 2.623 0 9.222 2.346 12.444 4.096.208.747.195.668.42 1.523-1.039.139-4.094.274-9.189.42-5.713 0-13.085 1.165-16.277 2.677l-5.881 2.52 6.721 1.891c3.697 1.176 8.086 2.815 9.766 3.99 2.521 1.849.977 2.206-9.608 2.206-7.897 0-13.421.819-14.597 1.995-1.849 1.848-1.029 2.206 3.675 2.205 9.073 0 22.673 4.695 27.881 9.4 1.067 1.012 1.345 1.428 1.838 1.995l-.052 1.312c-.174-.036-.035.118-.263.053-8.065-2.689-17.957-4.674-18.797-3.833-.504.336 1.649 2.352 4.673 4.2 3.024 2.016 7.424 5.367 9.609 7.719l4.043 4.358h-14.492c-16.467 0-32.901 3.035-48.359 9.084-12.77 4.872-11.773 5.208 5.198 1.68 12.601-2.689 57.295-4.043 74.77-2.363l8.401.84 5.723-14.124c11.258-28.564 14.608-59.134 7.719-72.408-10.586-20.33-41.313-12.433-76.766 20.163L195.519 53.15l-12.601-2.678c-7.393-1.512-21.161-2.52-32.922-2.52-11.762 0-25.529 1.008-32.922 2.52l-12.602 2.678-11.289-10.239c-20.33-18.818-43.98-31.924-56.918-31.924ZM227.34 112.43c-16.784.496-37.396 3.003-49.619 6.405-19.491 5.209-34.12 5.724-48.57 1.523-19.826-5.713-54.428-9.241-74.927-7.561-16.298 1.344-34.592 4.358-36.44 6.038-1.176 1.009-2.205 5.587-2.205 10.292 0 7.225.682 9.062 4.883 12.759 3.696 3.528 5.545 7.551 8.4 19.48 1.85 8.233 5.556 18.493 8.244 22.526 7.73 12.601 21.172 19.501 36.125 18.325l1.523-.105.998 3.518c-1.921-.107-4.055-.188-7.771-.053-16.635.84-24.847-2.352-34.76-13.442-5.713-6.217-7.214-7.393-6.038-4.2 2.688 6.889 10.386 21.674 13.914 26.883 1.848 2.689 3.224 5.02 2.888 5.356-.336.168-5.377 2.373-10.922 4.726C21.806 229.437 4.5 240.023 7.02 240.863c.84.336 4.547-1.04 8.244-2.888 15.458-7.897 72.081-22.001 88.211-22.001 7.562 0 3.823-2.184-5.25-3.36-6.89-.672-7.876-1.355-7.876-4.883 0-3.361 1.49-4.337 10.396-7.194 7.225-2.184 12.78-5.24 17.485-9.608 3.696-3.697 7.068-5.682 7.403-4.674.337 1.177 1.345 4.674 2.521 8.034 1.176 4.033 4.201 7.75 9.241 11.447 11.762 8.401 12.098 10.417 3.361 18.482-4.201 3.865-9.746 7.372-12.602 7.876-2.689.672-12.245 7.257-21.318 14.65l-16.487 13.599 10.239 4.516c21.002 9.409 44.389 13.105 64.216 10.081 12.433-1.848 30.895-7.697 39.8-12.234l4.726-2.521-16.33-13.441c-8.905-7.561-18.472-13.978-21.16-14.65-2.857-.504-8.402-4.011-12.602-7.876-8.905-8.233-8.558-9.767 4.043-19.007 6.385-4.705 8.391-7.362 9.399-12.235.672-3.528 1.502-6.899 1.838-7.403.336-.672 3.707 1.827 7.403 5.356 4.537 4.368 10.103 7.592 17.327 9.608 8.906 2.857 10.397 3.834 10.397 7.194 0 3.528-.987 4.21-7.876 4.883-9.073 1.176-12.812 3.361-5.251 3.36 16.13 0 72.753 14.104 88.212 22.001 3.696 1.848 7.404 3.224 8.244 2.888 2.688-.84-15.438-11.951-27.199-16.487l-11.289-4.358 3.36-4.044c3.529-4.2 11.94-20.351 14.965-28.248 1.344-3.361.031-2.321-5.513 3.728-9.578 11.089-17.475 14.439-33.605 14.439-15.626 0-17.474-2.499-2.52-3.675 24.027-2.017 36.775-17.013 42.32-49.777.841-5.209 2.51-8.191 6.039-10.712 4.368-3.192 4.883-4.715 4.883-12.444 0-4.872-.819-9.44-1.995-10.449-2.353-1.848-20.184-4.515-40.011-6.195-4.284-.337-9.474-.376-15.069-.21ZM74.596 123.93c1.856-.095 2.968.006 3.045.315l.052.052c-.055.521-3.49 2.305-7.823 4.306-8.065 3.528-19.323 13.105-22.683 19.322-2.14 3.852-3.912 11.127-3.413 13.337-.35 1.061-.697 1.84-1.208 1.995-.842.257-1.601-3.863-1.838-10.554.003-.446.053-.401.053-.892 0-15.962 2.205-20.867 10.607-23.891 5.292-1.764 17.448-3.697 23.208-3.99Zm138.513.367c4.739.203 4.611 1.67-1.942 3.308-11.93 3.024-25.225 17.275-28.249 29.877-.237 1.063-.297 1.681-.368 2.362-.495.795-1.026 1.598-1.523 1.681-1.064.177-.819-3.644-1.05-7.824.095-1.515.263-2.682.263-4.621 0-18.65 3.885-22.168 26.568-24.52 2.605-.252 4.722-.331 6.301-.263Zm-63.428 19.428c1.606.044 3.381.63 5.355 1.68 1.681.84 5.031 7.036 7.719 13.757 2.52 6.721 5.24 13.316 6.248 14.492 1.008 1.344.651 4.515-1.365 9.556l-2.835 7.561h-29.614l-2.836-7.561c-2.016-5.041-2.373-8.212-1.365-9.556 1.008-1.176 3.728-7.729 6.249-14.282 4.158-11.09 7.624-15.781 12.444-15.647Zm-35.81 72.565c-1.848 0-9.073 1.364-15.962 3.045-6.89 1.512-20.016 4.694-29.09 6.878-10.753 2.521-15.762 4.4-14.754 5.409 1.177 1.176-2.551 4.505-10.449 9.713-10.921 7.225-27.01 21.686-24.153 21.686.504 0 6.175-3.361 12.392-7.561 14.45-9.746 40.346-22.358 61.853-30.087 9.241-3.36 18.315-6.878 20.163-7.718 3.36-1.513 3.36-1.534 0-1.365Zm71.725.262c-1.04.045-.904.389.525 1.103 1.848.84 10.921 4.358 20.162 7.718 21.675 7.729 47.394 20.341 62.011 30.087 6.217 4.2 11.741 7.372 12.077 7.036 1.344-1.176-16.477-16.446-26.726-22.998-7.057-4.537-9.231-6.711-7.719-7.719 1.344-.84-7.53-3.696-23.155-7.561-20.415-5.041-34.057-7.8-37.175-7.666Zm-72.04 6.143c-.84.168-10.775 3.864-22.368 8.402-11.594 4.536-22.022 8.737-23.366 9.241-1.68.672-1.859 1.502-.682 2.678 1.176 1.176-3.182 6.584-13.6 17.169-8.4 8.57-17.138 18.797-19.322 22.999-3.865 7.225-3.193 6.72 12.601-8.402 17.979-17.306 38.51-33.247 56.655-44.001 10.754-6.384 12.938-8.253 10.082-8.086Zm73.037.42c-1.047-.217-1.312-.073-1.312.263s5.061 3.707 11.446 7.403c17.979 10.754 38.467 26.695 56.445 44.001 15.794 15.122 16.467 15.627 12.602 8.402-2.184-4.201-10.921-14.429-19.323-22.999-10.417-10.417-14.776-15.993-13.599-17.169 1.176-1.177.326-2.185-2.363-3.361-30.622-11.971-40.753-15.886-43.896-16.54Zm-60.75 1.313c-1.3-.079-4.705 1.491-11.132 5.146-17.138 9.745-35.295 22.011-34.287 23.523.504.84-2.531 6.206-6.564 11.919-13.777 19.659-17.61 30.927-4.673 14.125 8.401-10.922 32.271-34.109 46.889-45.367 5.713-4.536 10.397-8.548 10.397-8.716 0-.378-.197-.603-.63-.63Zm48.306 0c-.431.011-.63.252-.63.63 0 .168 4.726 4.179 10.606 8.716 14.45 11.258 38.278 34.445 46.679 45.367 12.938 16.802 9.105 5.534-4.673-14.125-4.032-5.713-7.068-11.079-6.563-11.919 1.008-1.512-15.459-12.948-32.765-22.526-7.813-4.41-11.363-6.174-12.654-6.143Zm-24.678 10.029c1.176 0 7.067 2.688 13.284 5.881 6.049 3.192 12.098 5.881 13.442 5.881 6.553 0-2.363 11.604-11.604 14.964-2.689 1.008-9.221 1.838-14.597 1.838-5.377 0-11.909-.83-14.597-1.838-5.545-2.016-13.967-9.577-13.967-12.602 0-1.176 2.037-2.531 4.726-3.203 2.52-.504 8.38-3.192 12.916-5.88 4.705-2.689 9.388-5.041 10.397-5.041Z" />
  </g>
</svg>
